<svg width="40" height="40" viewBox="0 0 40 40" fill="none" xmlns="http://www.w3.org/2000/svg">
<path d="M36.9256 11.6622C36.9256 10.6186 36.8376 9.57914 36.5883 8.56305C36.1408 6.71224 35.0855 5.2984 33.5063 4.26004C32.6939 3.72972 31.7999 3.4041 30.8496 3.23228C30.1198 3.1046 29.3812 3.03438 28.6404 3.02227C28.5853 3.01697 28.5248 3.0053 28.4633 3H11.4613C11.246 3.01697 11.0307 3.02758 10.8154 3.03818C9.76009 3.09864 8.71118 3.20895 7.71637 3.60669C5.82749 4.35231 4.46253 5.65584 3.6671 7.53423C3.39135 8.16955 3.25242 8.84306 3.15378 9.52823C3.07106 10.0808 3.02651 10.6387 3.01061 11.1966C3.01061 11.2412 3 11.2847 3 11.3292V28.6144L3.03288 29.2116C3.105 30.3666 3.25348 31.51 3.74028 32.5706C4.65768 34.5763 6.19869 35.8957 8.31453 36.531C8.90527 36.7135 9.52464 36.7962 10.143 36.8514C10.9278 36.9288 11.7115 36.9394 12.4964 36.9394H28.0953C28.8356 36.9394 29.5758 36.8895 30.3161 36.7962C31.4817 36.6467 32.5751 36.3041 33.5646 35.6528C34.7359 34.894 35.6595 33.8089 36.2214 32.5314C36.4865 31.9342 36.6361 31.3 36.7464 30.6583C36.9065 29.7026 36.9394 28.7353 36.9394 27.7691C36.9341 22.3991 36.9394 17.0301 36.9341 11.6601L36.9256 11.6622ZM27.8439 17.3017V25.3784C27.8439 25.9692 27.7612 26.5494 27.4961 27.085C27.0877 27.9187 26.4249 28.4437 25.5351 28.6982C25.0421 28.8395 24.534 28.921 24.0216 28.9411C23.3773 28.9792 22.7414 28.779 22.2351 28.3787C21.7288 27.9783 21.3874 27.4058 21.2758 26.77C21.1736 26.198 21.2619 25.6082 21.5273 25.0912C21.7926 24.5743 22.2203 24.1587 22.7447 23.9084C23.1976 23.6878 23.6897 23.5552 24.1807 23.4555C24.7163 23.3399 25.2519 23.2349 25.7822 23.1129C26.1746 23.0249 26.4281 22.7873 26.5055 22.3832C26.5277 22.2951 26.533 22.2007 26.533 22.1127V14.4125C26.5311 14.3246 26.5183 14.2373 26.4949 14.1526C26.4397 13.9373 26.2849 13.81 26.0643 13.8206C25.8373 13.8312 25.6167 13.8705 25.3961 13.915C24.3186 14.125 23.2421 14.3404 22.1699 14.561L16.9391 15.6163C16.9168 15.6216 16.8893 15.6333 16.867 15.6333C16.4746 15.7436 16.3367 15.9207 16.3197 16.3291C16.3144 16.3895 16.3197 16.451 16.3197 16.5115C16.3144 20.1908 16.3197 23.8702 16.3144 27.5485C16.3144 28.1456 16.2476 28.7311 16.0111 29.2826C15.6187 30.1884 14.923 30.758 13.9844 31.0284C13.4881 31.1729 12.9758 31.2545 12.4592 31.2713C11.106 31.3212 9.97857 30.4207 9.74736 29.0896C9.54798 27.9409 10.073 26.7032 11.3764 26.1506C11.8844 25.9406 12.4094 25.825 12.945 25.7146L14.1604 25.4665C14.7013 25.3508 14.9834 25.0083 15.011 24.4557V11.6835C15.011 11.5063 15.0333 11.3303 15.0714 11.1584C15.1711 10.7554 15.4585 10.5231 15.8446 10.4287C16.2041 10.3343 16.5743 10.2686 16.938 10.1911C17.9763 9.98113 19.0093 9.77112 20.0476 9.56642L23.2569 8.91412C24.2072 8.72639 25.1511 8.53335 26.1014 8.34562C26.4111 8.28516 26.7261 8.21834 27.04 8.19607C27.4759 8.15789 27.7803 8.43365 27.8248 8.87594C27.8354 8.98094 27.8418 9.08595 27.8418 9.19095V17.2953L27.8439 17.3017Z" fill="#32322D"/>
</svg>
