<svg width="40" height="40" viewBox="0 0 40 40" fill="none" xmlns="http://www.w3.org/2000/svg">
<path d="M19.9999 14.793C17.1328 14.793 14.7929 17.1328 14.7929 20C14.7929 22.8672 17.1328 25.207 19.9999 25.207C22.8671 25.207 25.207 22.8672 25.207 20C25.207 17.1328 22.8671 14.793 19.9999 14.793ZM35.6171 20C35.6171 17.8437 35.6367 15.707 35.5156 13.5547C35.3945 11.0547 34.8242 8.83594 32.996 7.00781C31.164 5.17578 28.9492 4.60937 26.4492 4.48828C24.2929 4.36719 22.1562 4.38672 20.0038 4.38672C17.8476 4.38672 15.7109 4.36719 13.5585 4.48828C11.0585 4.60937 8.83979 5.17969 7.01166 7.00781C5.17963 8.83984 4.61322 11.0547 4.49213 13.5547C4.37103 15.7109 4.39057 17.8477 4.39057 20C4.39057 22.1523 4.37103 24.293 4.49213 26.4453C4.61322 28.9453 5.18353 31.1641 7.01166 32.9922C8.84369 34.8242 11.0585 35.3906 13.5585 35.5117C15.7148 35.6328 17.8515 35.6133 20.0038 35.6133C22.1601 35.6133 24.2968 35.6328 26.4492 35.5117C28.9492 35.3906 31.1679 34.8203 32.996 32.9922C34.8281 31.1602 35.3945 28.9453 35.5156 26.4453C35.6406 24.293 35.6171 22.1562 35.6171 20ZM19.9999 28.0117C15.5663 28.0117 11.9882 24.4336 11.9882 20C11.9882 15.5664 15.5663 11.9883 19.9999 11.9883C24.4335 11.9883 28.0117 15.5664 28.0117 20C28.0117 24.4336 24.4335 28.0117 19.9999 28.0117ZM28.3398 13.5312C27.3046 13.5312 26.4687 12.6953 26.4687 11.6602C26.4687 10.625 27.3046 9.78906 28.3398 9.78906C29.3749 9.78906 30.2109 10.625 30.2109 11.6602C30.2112 11.906 30.163 12.1494 30.0691 12.3766C29.9752 12.6037 29.8373 12.8101 29.6635 12.9839C29.4897 13.1577 29.2833 13.2955 29.0562 13.3894C28.829 13.4834 28.5856 13.5316 28.3398 13.5312Z" fill="#EFE8D4"/>
</svg>
