<svg width="40" height="40" viewBox="0 0 40 40" fill="none" xmlns="http://www.w3.org/2000/svg">
<path d="M26.2569 18.605C26.0007 18.7758 25.6165 18.9039 25.147 18.9039C24.4212 18.9039 23.7382 18.8185 23.0552 18.605C22.8844 18.5623 22.7564 18.5197 22.671 18.5197C22.5429 18.5197 22.5002 18.605 22.5002 18.7758V19.2027C22.5002 19.3308 22.5429 19.4161 22.5856 19.5015C22.6283 19.5442 22.7137 19.6296 22.8418 19.6723C23.5248 19.9711 24.2932 20.0992 25.147 20.0992C26.0434 20.0992 26.7265 19.8857 27.2814 19.4588C27.8364 19.0319 28.0925 18.477 28.0925 17.7513C28.0925 17.239 27.9644 16.8548 27.7083 16.5133C27.4522 16.2145 27.0253 15.9156 26.4276 15.7022L25.2323 15.2326C24.7628 15.0619 24.4212 14.8911 24.2932 14.7203C24.1224 14.5496 24.037 14.3788 24.037 14.08C24.037 13.4397 24.5066 13.0982 25.4885 13.0982C26.0434 13.0982 26.5984 13.1835 27.1107 13.3543C27.2814 13.397 27.4095 13.4397 27.4522 13.4397C27.5802 13.4397 27.6656 13.3543 27.6656 13.1835V12.7566C27.6656 12.6286 27.6229 12.5432 27.5802 12.4578C27.5375 12.3724 27.4522 12.3298 27.3241 12.2871C26.6838 12.0736 26.0434 11.9456 25.4031 11.9456C24.592 11.9456 23.909 12.159 23.3967 12.5432C22.8844 12.9274 22.6283 13.4824 22.6283 14.1227C22.6283 15.1045 23.1833 15.8303 24.2932 16.2571L25.5738 16.7267C26.0007 16.8975 26.2569 17.0255 26.4276 17.1963C26.5984 17.3671 26.6411 17.5378 26.6411 17.7939C26.6411 18.1355 26.513 18.4343 26.2569 18.605Z" fill="#32322D"/>
<path d="M19.5549 12.4578V18.1354C18.8292 18.605 18.1035 18.8611 17.3778 18.8611C16.9082 18.8611 16.5667 18.7331 16.3532 18.4769C16.1398 18.2208 16.0544 17.8366 16.0544 17.2816V12.4578C16.0544 12.2443 15.969 12.159 15.7556 12.159H14.8591C14.6457 12.159 14.5603 12.2443 14.5603 12.4578V17.7512C14.5603 18.4769 14.7311 19.0746 15.1153 19.4588C15.4995 19.843 16.0544 20.0564 16.7801 20.0564C17.762 20.0564 18.7438 19.7149 19.683 19.0319L19.7684 19.5442C19.7684 19.6722 19.811 19.7149 19.8964 19.7576C19.9391 19.8003 20.0245 19.8003 20.1526 19.8003H20.7929C21.0063 19.8003 21.0917 19.7149 21.0917 19.5015V12.4578C21.0917 12.2443 21.0063 12.159 20.7929 12.159H19.8964C19.6403 12.159 19.5549 12.287 19.5549 12.4578Z" fill="#32322D"/>
<path d="M11.4444 19.843H12.3409C12.5543 19.843 12.6397 19.7576 12.6397 19.5442V14.2081C12.6397 13.4824 12.469 12.9274 12.0848 12.5432C11.7006 12.159 11.1883 11.9456 10.4626 11.9456C9.48074 11.9456 8.45621 12.2871 7.47436 13.0128C7.13285 12.2871 6.49251 11.9456 5.55336 11.9456C4.6142 11.9456 3.67504 12.2871 2.73588 12.9274L2.65051 12.4578C2.65051 12.3298 2.60782 12.2871 2.52244 12.2444C2.47975 12.2017 2.39437 12.2017 2.30899 12.2017H1.62597C1.41253 12.2017 1.32715 12.2871 1.32715 12.5005V19.5869C1.32715 19.8003 1.41253 19.8857 1.62597 19.8857H2.52244C2.73588 19.8857 2.82126 19.8003 2.82126 19.5869V13.8239C3.54698 13.397 4.27269 13.1408 5.04109 13.1408C5.46798 13.1408 5.7668 13.2689 5.93756 13.525C6.10831 13.7812 6.23638 14.1227 6.23638 14.635V19.5442C6.23638 19.7576 6.32176 19.843 6.5352 19.843H7.43167C7.64512 19.843 7.73049 19.7576 7.73049 19.5442V14.2935V14.0373C7.73049 13.9519 7.73049 13.8666 7.73049 13.8239C8.4989 13.3543 9.22461 13.1408 9.95032 13.1408C10.3772 13.1408 10.676 13.2689 10.8468 13.525C11.0175 13.7812 11.1456 14.1227 11.1456 14.635V19.5442C11.1456 19.7576 11.231 19.843 11.4444 19.843Z" fill="#32322D"/>
<path d="M34.7097 25.5206C30.0566 27.4843 24.9766 28.4662 20.3662 28.4662C13.5359 28.4662 6.91916 26.5879 1.58303 23.4716C1.49766 23.4289 1.41228 23.3862 1.3269 23.3862C1.02808 23.3862 0.857321 23.7277 1.15614 24.0265C6.10807 28.5089 12.6822 31.1983 19.9393 31.1983C25.1473 31.1983 31.1665 29.5761 35.3073 26.5025C36.033 25.9902 35.4354 25.2218 34.7097 25.5206Z" fill="#32322D"/>
<path d="M34.5815 13.8666C34.9657 13.4397 35.5633 13.2262 36.4171 13.2262C36.844 13.2262 37.2709 13.2689 37.6551 13.397C37.7831 13.4397 37.8258 13.4397 37.9112 13.4397C38.0393 13.4397 38.1247 13.3543 38.1247 13.1409V12.714C38.1247 12.5859 38.082 12.4578 38.0393 12.4151C37.9966 12.3725 37.9112 12.2871 37.8258 12.2444C37.2709 12.1163 36.7159 11.9883 36.2037 11.9883C35.0084 11.9883 34.1119 12.3298 33.4289 13.0555C32.7885 13.7385 32.447 14.763 32.447 16.0437C32.447 17.3244 32.7458 18.3062 33.3862 18.9892C34.0265 19.6723 34.923 20.0138 36.1183 20.0138C36.7586 20.0138 37.3563 19.9284 37.8258 19.715C37.9539 19.6723 38.0393 19.6296 38.082 19.5442C38.1247 19.5015 38.1247 19.3734 38.1247 19.2454V18.8185C38.1247 18.605 38.0393 18.5197 37.9112 18.5197C37.8685 18.5197 37.7831 18.5197 37.6978 18.5624C37.2282 18.6904 36.7586 18.7758 36.3317 18.7758C35.5206 18.7758 34.923 18.5624 34.5388 18.1355C34.1546 17.7086 33.9838 17.0255 33.9838 16.1291V15.9156C34.0265 14.9765 34.1973 14.2935 34.5815 13.8666Z" fill="#32322D"/>
<path d="M36.5026 29.5334C38.7225 27.6551 39.3201 23.7704 38.8505 23.1727C38.6371 22.9166 37.6126 22.6605 36.3319 22.6605C34.9658 22.6605 33.3437 22.9593 32.1057 23.8131C31.7215 24.0692 31.8069 24.4107 32.1911 24.368C33.5144 24.1973 36.5026 23.8558 37.0576 24.5388C37.5699 25.2218 36.46 28.0393 35.9477 29.2773C35.8196 29.6615 36.1184 29.7895 36.5026 29.5334Z" fill="#32322D"/>
<path d="M30.5691 12.159H29.6726C29.4592 12.159 29.3738 12.2443 29.3738 12.4578V19.5442C29.3738 19.7576 29.4592 19.843 29.6726 19.843H30.5691C30.7825 19.843 30.8679 19.7576 30.8679 19.5442V12.4578C30.8679 12.287 30.7825 12.159 30.5691 12.159Z" fill="#32322D"/>
<path d="M30.825 9.25613C30.6543 9.08538 30.3981 9 30.0993 9C29.8005 9 29.587 9.08538 29.4163 9.25613C29.2455 9.42689 29.1602 9.64033 29.1602 9.89647C29.1602 10.1526 29.2455 10.4087 29.4163 10.5368C29.587 10.7076 29.8005 10.7929 30.0993 10.7929C30.3981 10.7929 30.6116 10.7076 30.7823 10.5368C30.9531 10.366 31.0385 10.1526 31.0385 9.89647C31.0385 9.64033 30.9958 9.3842 30.825 9.25613Z" fill="#32322D"/>
</svg>
