<svg width="42" height="45" viewBox="0 0 42 45" fill="none" xmlns="http://www.w3.org/2000/svg">
<g filter="url(#filter0_d_83_216)">
<path fill-rule="evenodd" clip-rule="evenodd" d="M4.33325 20.0931C4.33325 28.3792 10.3513 35.2694 18.2221 36.6667V24.6292H14.0555V20H18.2221V16.2958C18.2221 12.1292 20.9069 9.81528 24.7041 9.81528C25.9069 9.81528 27.2041 10 28.4069 10.1847V14.4444H26.2777C24.2402 14.4444 23.7777 15.4625 23.7777 16.7597V20H28.2221L27.4819 24.6292H23.7777V36.6667C31.6485 35.2694 37.6666 28.3806 37.6666 20.0931C37.6666 10.875 30.1666 3.33333 20.9999 3.33333C11.8333 3.33333 4.33325 10.875 4.33325 20.0931Z" fill="#EFE8D4"/>
</g>
<defs>
<filter id="filter0_d_83_216" x="-3" y="0" width="48" height="48" filterUnits="userSpaceOnUse" color-interpolation-filters="sRGB">
<feFlood flood-opacity="0" result="BackgroundImageFix"/>
<feColorMatrix in="SourceAlpha" type="matrix" values="0 0 0 0 0 0 0 0 0 0 0 0 0 0 0 0 0 0 127 0" result="hardAlpha"/>
<feOffset dy="4"/>
<feGaussianBlur stdDeviation="2"/>
<feComposite in2="hardAlpha" operator="out"/>
<feColorMatrix type="matrix" values="0 0 0 0 0 0 0 0 0 0 0 0 0 0 0 0 0 0 0.25 0"/>
<feBlend mode="normal" in2="BackgroundImageFix" result="effect1_dropShadow_83_216"/>
<feBlend mode="normal" in="SourceGraphic" in2="effect1_dropShadow_83_216" result="shape"/>
</filter>
</defs>
</svg>
