<svg width="40" height="40" viewBox="0 0 40 40" fill="none" xmlns="http://www.w3.org/2000/svg">
<path d="M20.0167 3.36499C10.8583 3.36499 3.36499 10.8583 3.36499 20.0167C3.36499 29.1733 10.8583 36.6667 20.0167 36.6667C29.1733 36.6667 36.6667 29.1733 36.6667 20.0167C36.6667 10.8583 29.2567 3.36499 20.0167 3.36499ZM27.675 27.425C27.3433 27.9233 26.76 28.0917 26.2583 27.76C22.3433 25.3433 17.4317 24.8433 11.6033 26.175C11.0233 26.345 10.5233 25.9283 10.3567 25.4267C10.1883 24.8433 10.605 24.3467 11.1067 24.1783C17.4317 22.7617 22.9283 23.3467 27.2567 26.0117C27.84 26.26 27.9233 26.925 27.675 27.425ZM29.675 22.8467C29.2567 23.4283 28.5083 23.6783 27.9233 23.2617C23.4283 20.5183 16.6033 19.6817 11.3583 21.3483C10.695 21.5167 9.94166 21.1817 9.77666 20.5183C9.60832 19.8483 9.94332 19.0983 10.6083 18.9317C16.685 17.1017 24.18 18.0183 29.34 21.1833C29.84 21.4317 30.09 22.2633 29.675 22.8467ZM29.84 18.1817C24.5117 15.02 15.6033 14.6867 10.5233 16.2717C10.137 16.383 9.72264 16.3412 9.36633 16.155C9.01002 15.9687 8.73914 15.6524 8.60999 15.2717C8.49669 14.8849 8.53732 14.4693 8.72338 14.1117C8.90945 13.7542 9.22653 13.4825 9.60832 13.3533C15.52 11.605 25.2617 11.9367 31.4233 15.605C32.1717 16.02 32.4217 17.02 32.005 17.7683C31.5883 18.3517 30.59 18.5983 29.84 18.1817Z" fill="#32322D"/>
</svg>
