<svg width="40" height="40" viewBox="0 0 40 40" fill="none" xmlns="http://www.w3.org/2000/svg">
<g clip-path="url(#clip0_83_218)">
<path d="M39.1667 10.845C38.9402 10.0371 38.499 9.30558 37.8901 8.72833C37.2639 8.13334 36.4964 7.70773 35.6601 7.49167C32.5301 6.66667 19.9901 6.66667 19.9901 6.66667C14.7623 6.60719 9.53577 6.86879 4.34005 7.45C3.5037 7.68202 2.73766 8.11714 2.11005 8.71667C1.49339 9.31 1.04672 10.0417 0.813385 10.8433C0.252874 13.8629 -0.0194612 16.9289 5.20763e-05 20C-0.0199479 23.0683 0.251719 26.1333 0.813385 29.1567C1.04172 29.955 1.48672 30.6833 2.10505 31.2717C2.72339 31.86 3.49339 32.285 4.34005 32.51C7.51172 33.3333 19.9901 33.3333 19.9901 33.3333C25.2245 33.3929 30.4577 33.1313 35.6601 32.55C36.4964 32.3339 37.2639 31.9083 37.8901 31.3133C38.4988 30.7362 38.9395 30.0046 39.1651 29.1967C39.7402 26.1783 40.0199 23.111 40.0001 20.0383C40.0433 16.9527 39.764 13.8709 39.1667 10.8433V10.845ZM16.0034 25.7067V14.295L26.4367 20.0017L16.0034 25.7067Z" fill="#EFE8D4"/>
</g>
<defs>
<clipPath id="clip0_83_218">
<rect width="40" height="40" fill="white"/>
</clipPath>
</defs>
</svg>
